<svg width="18" height="16" viewBox="0 0 18 16" fill="none" xmlns="http://www.w3.org/2000/svg">
<path d="M7.61476 5.46225C9.14407 5.46225 10.3838 4.23948 10.3838 2.73112C10.3838 1.22277 9.14407 0 7.61476 0C6.08545 0 4.8457 1.22277 4.8457 2.73112C4.8457 4.23948 6.08545 5.46225 7.61476 5.46225Z" fill="#0073B1"/>
<path d="M15.8384 3.72833L4.96289 14.4548L6.22973 15.7043C6.31845 15.7978 6.42566 15.8722 6.54473 15.9232C6.66381 15.9741 6.79221 16.0003 6.922 16.0003C7.05178 16.0003 7.18019 15.9741 7.29926 15.9232C7.41834 15.8722 7.52555 15.7978 7.61426 15.7043L17.7975 5.6606C17.934 5.51129 18.006 5.3153 17.9982 5.11438C17.9894 4.95492 17.9173 4.8053 17.7975 4.69788L16.8214 3.72833C16.757 3.66434 16.6805 3.61354 16.5961 3.57888C16.5117 3.54421 16.4213 3.52637 16.3299 3.52637C16.2385 3.52637 16.148 3.54421 16.0636 3.57888C15.9793 3.61354 15.9027 3.66434 15.8384 3.72833Z" fill="#0091CA"/>
<path opacity="0.8" d="M8.88133 14.4545L7.61448 15.704C7.52427 15.7939 7.41626 15.8646 7.29716 15.9116C7.17806 15.9586 7.05043 15.9809 6.92222 15.9771C6.79405 15.9805 6.66654 15.958 6.5475 15.911C6.42847 15.8641 6.32041 15.7936 6.22995 15.704L0.200329 9.75697C0.0713938 9.62904 -0.000976562 9.45599 -0.000976562 9.27561C-0.000976562 9.09523 0.0713938 8.92218 0.200329 8.79425L1.17642 7.83153C1.31853 7.69979 1.50758 7.62864 1.70254 7.63352C1.87305 7.6388 2.03464 7.7099 2.15251 7.83153L8.88133 14.4545Z" fill="#33AADA"/>
<path d="M6.92262 12.5225L9.69167 9.7914V6.82812H5.53809V11.157L6.92262 12.5225Z" fill="#0073B1"/>
</svg>
