<svg width="21" height="16" viewBox="0 0 21 16" fill="none" xmlns="http://www.w3.org/2000/svg">
<path fill-rule="evenodd" clip-rule="evenodd" d="M9.33208 9.90754H11.617H12.131C14.5302 9.90754 17.5576 9.29216 19.0428 8.92294V1.84612C19.0428 0.799987 18.3002 0 17.3291 0H3.6199C2.64883 0 1.90625 0.799987 1.90625 1.84612V8.92294C3.39142 9.29216 6.41887 9.90754 8.81798 9.90754H9.33208Z" fill="#CAEDFF"/>
<path d="M6.4753 8.00015C7.7372 8.00015 8.76017 6.8981 8.76017 5.53865C8.76017 4.1792 7.7372 3.07715 6.4753 3.07715C5.2134 3.07715 4.19043 4.1792 4.19043 5.53865C4.19043 6.8981 5.2134 8.00015 6.4753 8.00015Z" fill="#0091CA"/>
<path d="M14.4724 8.00015C15.7343 8.00015 16.7572 6.8981 16.7572 5.53865C16.7572 4.1792 15.7343 3.07715 14.4724 3.07715C13.2105 3.07715 12.1875 4.1792 12.1875 5.53865C12.1875 6.8981 13.2105 8.00015 14.4724 8.00015Z" fill="url(#paint0_linear)"/>
<path d="M20.4136 10.4614L20.0709 9.23064C19.9566 8.92295 19.671 8.73834 19.3854 8.79988C18.3001 9.04603 15.6725 9.6614 13.2734 9.84601V12.8614C13.2734 13.3537 13.0449 13.7229 12.7021 13.969V15.3844C12.7021 15.7536 12.9306 15.9998 13.2734 15.9998H16.1295C16.4722 15.9998 16.7007 15.7536 16.7007 15.3844V11.8768C18.0716 11.6306 19.2712 11.446 19.9566 11.2614C20.3565 11.1998 20.5278 10.8306 20.4136 10.4614Z" fill="#2569B4"/>
<path d="M11.6167 9.90797H8.81774C6.19014 9.90797 2.76283 9.16951 1.50615 8.86183C1.22054 8.80029 0.934934 8.9849 0.820691 9.29259L0.47796 10.5233C0.363717 10.8926 0.592204 11.2618 0.934934 11.3233C1.6204 11.4464 2.81995 11.6926 4.19088 11.9387V15.3848C4.19088 15.754 4.41936 16.0002 4.76209 16.0002H7.61818C7.96091 16.0002 8.1894 15.754 8.1894 15.3848V12.3079C8.41789 12.3079 8.64637 12.3079 8.81774 12.3079H11.6167C11.9594 12.3079 12.1879 12.0618 12.1879 11.6926V10.5233C12.1879 10.1541 11.9594 9.90797 11.6167 9.90797Z" fill="#0091CA"/>
<defs>
<linearGradient id="paint0_linear" x1="13.4915" y1="2.16307" x2="16.8045" y2="11.9867" gradientUnits="userSpaceOnUse">
<stop stop-color="#665ED0"/>
<stop offset="1" stop-color="#0073B1"/>
</linearGradient>
</defs>
</svg>
