<svg width="14" height="16" viewBox="0 0 14 16" fill="none" xmlns="http://www.w3.org/2000/svg">
<path d="M5.93218 0.0952C4.91772 0.269244 3.95935 0.688446 3.13788 1.31745C2.31641 1.94646 1.65593 2.76683 1.21213 3.70939C0.768338 4.65194 0.554241 5.68904 0.587897 6.73324C0.621553 7.77743 0.901975 8.79809 1.40552 9.70916L0.238849 13.0264C0.220719 13.0775 0.21774 13.133 0.23028 13.1858C0.242821 13.2387 0.270331 13.2867 0.309415 13.3238C0.348499 13.361 0.397446 13.3857 0.450214 13.395C0.502982 13.4042 0.55726 13.3976 0.606349 13.3759L3.64552 12.0549C4.52879 12.6106 5.53175 12.9402 6.56817 13.0153C7.6046 13.0905 8.64349 12.9089 9.59554 12.4862C10.5476 12.0635 11.3843 11.4124 12.0338 10.5887C12.6832 9.76511 13.126 8.79364 13.3241 7.75785C13.5221 6.72205 13.4695 5.65291 13.1707 4.64233C12.8719 3.63175 12.336 2.70997 11.6088 1.95622C10.8817 1.20247 9.98523 0.639309 8.99642 0.31514C8.00761 -0.0090292 6.95607 -0.0845053 5.93218 0.0952Z" fill="#CAEDFF"/>
<path d="M12.25 5.93012C13.2165 5.93012 14 5.1345 14 4.15305C14 3.1716 13.2165 2.37598 12.25 2.37598C11.2835 2.37598 10.5 3.1716 10.5 4.15305C10.5 5.1345 11.2835 5.93012 12.25 5.93012Z" fill="#0091CA"/>
<path d="M1.75 5.92994C2.7165 5.92994 3.5 5.13432 3.5 4.15287C3.5 3.17142 2.7165 2.37579 1.75 2.37579C0.783502 2.37579 0 3.17142 0 4.15287C0 5.13432 0.783502 5.92994 1.75 5.92994Z" fill="#0091CA"/>
<path d="M7.00033 5.33759C6.53884 5.33759 6.08771 5.19862 5.704 4.93826C5.32028 4.67791 5.02121 4.30785 4.84461 3.8749C4.668 3.44194 4.6218 2.96553 4.71183 2.5059C4.80186 2.04628 5.02409 1.62409 5.35041 1.29272C5.67673 0.961345 6.09249 0.735678 6.54512 0.644253C6.99774 0.552828 7.46689 0.599751 7.89325 0.779088C8.31962 0.958424 8.68403 1.26212 8.94042 1.65177C9.19681 2.04142 9.33366 2.49953 9.33366 2.96816C9.33366 3.59657 9.08783 4.19924 8.65024 4.6436C8.21266 5.08795 7.61917 5.33759 7.00033 5.33759ZM8.75033 6.5223H5.25033V16H8.75033V6.5223Z" fill="url(#paint0_linear)"/>
<path d="M14 7.11435H10.5V15.4074H14V7.11435Z" fill="#0091CA"/>
<path d="M3.5 7.11475H0V15.4078H3.5V7.11475Z" fill="#0091CA"/>
<defs>
<linearGradient id="paint0_linear" x1="-3.59301" y1="-19.8909" x2="7.68344" y2="9.39894" gradientUnits="userSpaceOnUse">
<stop stop-color="#665ED0"/>
<stop offset="1" stop-color="#0073B1"/>
</linearGradient>
</defs>
</svg>
