<svg width="16" height="17" viewBox="0 0 16 17" fill="none" xmlns="http://www.w3.org/2000/svg">
<path d="M7.0008 4.69147C8.0247 4.69021 9.02596 4.99277 9.87784 5.56083C10.7297 6.1289 11.3939 6.93694 11.7863 7.88266C12.1787 8.82839 12.2817 9.86928 12.0823 10.8736C11.8828 11.8779 11.3899 12.8004 10.6659 13.5244C9.94188 14.2484 9.01933 14.7414 8.01504 14.9408C7.01075 15.1402 5.96986 15.0372 5.02413 14.6448C4.07841 14.2524 3.27037 13.5882 2.7023 12.7364C2.13423 11.8845 1.83168 10.8832 1.83294 9.85933C1.83462 8.48925 2.37963 7.17576 3.34843 6.20696C4.31723 5.23817 5.63071 4.69316 7.0008 4.69147ZM7.0008 2.85854C5.61617 2.85854 4.26264 3.26913 3.11136 4.03838C1.96009 4.80764 1.06278 5.90101 0.532907 7.18024C0.00303336 8.45947 -0.135606 9.8671 0.134521 11.2251C0.404649 12.5831 1.07141 13.8306 2.05049 14.8096C3.02957 15.7887 4.27699 16.4555 5.63501 16.7256C6.99303 16.9957 8.40066 16.8571 9.67989 16.3272C10.9591 15.7973 12.0525 14.9 12.8217 13.7488C13.591 12.5975 14.0016 11.244 14.0016 9.85933C14.0016 8.0026 13.264 6.22192 11.9511 4.90902C10.6382 3.59612 8.85752 2.85854 7.0008 2.85854Z" fill="url(#paint0_linear)"/>
<path d="M7.00082 12.4052C8.4068 12.4052 9.54657 11.2654 9.54657 9.85946C9.54657 8.45349 8.4068 7.31372 7.00082 7.31372C5.59485 7.31372 4.45508 8.45349 4.45508 9.85946C4.45508 11.2654 5.59485 12.4052 7.00082 12.4052Z" fill="url(#paint1_linear)"/>
<path d="M7.90329 10.7594C8.40038 10.2623 8.40038 9.45636 7.90329 8.95927C7.40621 8.46219 6.60027 8.46219 6.10318 8.95927C5.60609 9.45636 5.60609 10.2623 6.10318 10.7594C6.60027 11.2565 7.40621 11.2565 7.90329 10.7594Z" fill="#33AADA"/>
<path d="M11.5032 7.16089L9.70312 5.36078L6.1029 8.961L7.90301 10.7611L11.5032 7.16089Z" fill="#33AADA"/>
<path d="M12.8498 7.60657L9.69941 7.16107L9.25391 4.01071L12.3979 0.860352L12.7288 4.13163L16.0001 4.46258L12.8498 7.60657Z" fill="#33AADA"/>
<defs>
<linearGradient id="paint0_linear" x1="16.4073" y1="-0.425473" x2="3.60223" y2="13.5761" gradientUnits="userSpaceOnUse">
<stop stop-color="#665ED0"/>
<stop offset="1" stop-color="#0073B1"/>
</linearGradient>
<linearGradient id="paint1_linear" x1="16.4073" y1="-0.425339" x2="3.60225" y2="13.5762" gradientUnits="userSpaceOnUse">
<stop stop-color="#665ED0"/>
<stop offset="1" stop-color="#0073B1"/>
</linearGradient>
</defs>
</svg>
